<svg id="Layer_1" data-name="Layer 1" xmlns="http://www.w3.org/2000/svg" viewBox="0 0 1008.22 198" aria-label="イーザッカマニアストアーズ"><defs><style>.cls-1{fill:#111}</style></defs><path class="cls-1" d="M45.47 28.42a36.09 36.09 0 00-26.82 11A38.1 38.1 0 007.91 66.81a36.53 36.53 0 0010.74 27 37.76 37.76 0 0027.83 10.78 42.92 42.92 0 0019-3.88 36.66 36.66 0 0013.68-12.1 1 1 0 000-.73 1.06 1.06 0 00-.51-.59l-15-7a.75.75 0 00-1 0A22.81 22.81 0 0146.16 87a20.06 20.06 0 01-13-3.74 17.71 17.71 0 01-6.08-10.7h56.1a.87.87 0 00.87-.87v-3.37a39.73 39.73 0 00-10.79-29 37.47 37.47 0 00-27.79-10.9M28.2 56.8a20.09 20.09 0 015.67-7.58 20.5 20.5 0 0112.52-4 19.24 19.24 0 0111.52 3.56 17 17 0 016.21 8zM139.85 57.49h-33.13a.87.87 0 00-.87.87V75a.86.86 0 00.82.91h33.18a.91.91 0 00.87-.91V58.4a.91.91 0 00-.87-.91M219.05 30.66a.94.94 0 00-.77-.45H164a.9.9 0 00-.91.86v15.09a.9.9 0 00.91.84h25.59l-31.26 54.53a1 1 0 000 .91.92.92 0 00.78.41h57.36a.83.83 0 00.87-.77V86.92a.87.87 0 00-.87-.87h-28.54l31.12-54.52a1 1 0 000-.87M305 30.21h-17.62a.86.86 0 00-.87.86v5.76a33.8 33.8 0 00-9.14-6 30.88 30.88 0 00-12.29-2.43A31.76 31.76 0 00241 39.16a39 39 0 00-10 27.42 38.2 38.2 0 0010 27.2 32.44 32.44 0 0024.4 10.92 30.11 30.11 0 0011.7-2.24 34 34 0 009.14-5.94V102a.81.81 0 00.77.87h18a.87.87 0 00.92-.82v-71a.91.91 0 00-.92-.86M287.1 66.4a20.48 20.48 0 01-5 14.67 17.52 17.52 0 01-13.25 5.58 17.31 17.31 0 01-13-5.67 20.46 20.46 0 01-5.3-14.49 20.18 20.18 0 015.21-14.35 17 17 0 0112.94-5.44 17.8 17.8 0 0113.43 5.35 19.78 19.78 0 015.3 14.35M367 65l30-33.41a.92.92 0 000-1 .84.84 0 00-.59-.41h-22.47a.91.91 0 00-.64.27L348.67 57.9V3.7a.92.92 0 00-.92-.87H330a.91.91 0 00-.91.87V102a.87.87 0 00.87.87h17.82a.86.86 0 00.91-.82V71.61l28.56 31a.76.76 0 00.64.27h22.07a.87.87 0 00.83-.5.84.84 0 000-1zM451.22 65l30-33.41a.92.92 0 000-1 .94.94 0 00-.82-.51h-22.3a.9.9 0 00-.69.28l-24.65 27.45V3.7a.92.92 0 00-.92-.87h-17.77a.87.87 0 00-.87.87V102a.81.81 0 00.77.87h17.87a.87.87 0 00.92-.82V71.61l28.56 31a.91.91 0 00.64.27h22.12a1 1 0 00.83-.5 1 1 0 000-1zM568.18 30.21H550.4a.91.91 0 00-.92.86v5.76a33.41 33.41 0 00-9.14-6A31 31 0 00528 28.38a32 32 0 00-24.22 10.78 39.23 39.23 0 00-9.92 27.42 38.21 38.21 0 0010.24 27.11 32.54 32.54 0 0024.45 10.92 30.07 30.07 0 0011.7-2.24 34.71 34.71 0 009.14-5.94v5.48a.87.87 0 00.87.87h17.82a.87.87 0 00.92-.78V31.07a.91.91 0 00-.92-.86M550.17 66.4a20.61 20.61 0 01-5.26 14.67 17.52 17.52 0 01-13.25 5.58 16.86 16.86 0 01-13-5.67 20.46 20.46 0 01-5.3-14.49 20.18 20.18 0 015.21-14.35 17.13 17.13 0 0113.12-5.44A17.82 17.82 0 01545 52.19a20 20 0 015.26 14.35M691.07 32a25.83 25.83 0 00-13.71-3.65 29.1 29.1 0 00-23.81 12 23.17 23.17 0 00-20.75-11.93 29.67 29.67 0 00-21.39 8.64v-6a.9.9 0 00-.91-.86h-17.6a.9.9 0 00-.91.86V102a.86.86 0 00.86.87h17.83a.86.86 0 00.91-.82V70.47a44.11 44.11 0 011.74-14.67 14.44 14.44 0 015.12-7 12.41 12.41 0 017.55-2.46 10.51 10.51 0 016.26 1.87 11.73 11.73 0 013.89 5.94 47.51 47.51 0 011.37 13.49V102a.87.87 0 00.86.87h18a.86.86 0 00.86-.87V70a43.8 43.8 0 011.7-14.44 14.62 14.62 0 015.06-6.8 13 13 0 017.68-2.42 9.13 9.13 0 018.27 3.88 30.28 30.28 0 012.8 15.78v36a.82.82 0 00.78.87h18a.87.87 0 00.91-.82V60.41a50.15 50.15 0 00-2.61-18.78 21.16 21.16 0 00-8.59-9.6M795.09 30.21h-17.78a.86.86 0 00-.87.86v5.76a33.8 33.8 0 00-9.14-6 30.71 30.71 0 00-12.3-2.41 31.73 31.73 0 00-24.22 10.79 39 39 0 00-10 27.42 38.21 38.21 0 0010.29 27.1 32.45 32.45 0 0024.4 10.93 30.07 30.07 0 0011.7-2.24 34.91 34.91 0 009.14-6V102a.83.83 0 00.78.87H795a.87.87 0 00.91-.82V31.07a.9.9 0 00-.91-.86M777.13 66.4a20.46 20.46 0 01-5.3 14.67 17.54 17.54 0 01-13.26 5.58 16.84 16.84 0 01-13-5.67 20.37 20.37 0 01-5.3-14.49 20.09 20.09 0 015.21-14.35 17.23 17.23 0 0113.16-5.44 17.81 17.81 0 0113.3 5.49 19.78 19.78 0 015.3 14.35M858.57 28.42a27.51 27.51 0 00-10.37 2.06 41.47 41.47 0 00-9.74 6v-5.41a.9.9 0 00-.91-.86h-17.78a.86.86 0 00-.87.86V102a.81.81 0 00.77.87h17.88a.86.86 0 00.91-.82V73.53a80 80 0 01.78-14.17 18.27 18.27 0 015-9.55 12.29 12.29 0 018.76-3.33 10.23 10.23 0 016.44 2 10.72 10.72 0 013.66 5.9A79.17 79.17 0 01864.15 71v31a.86.86 0 00.86.87h17.6a.86.86 0 00.91-.82V55.16A26.11 26.11 0 00877.08 36a25.33 25.33 0 00-18.51-7.59M913.5 1a11.71 11.71 0 00-8.63 3.61 11.75 11.75 0 00-3.57 8.64 12.33 12.33 0 003.61 8.91 12 12 0 0016.93.35l.35-.35a11.86 11.86 0 003.56-8.73A12 12 0 00922 4.66 11.76 11.76 0 00913.32 1M922.42 30.21h-17.83a.86.86 0 00-.87.86V102a.83.83 0 00.78.87h17.92a.87.87 0 00.87-.87V31.07a.91.91 0 00-.87-.86M1015.38 30.21h-17.83a.91.91 0 00-.87.86v5.76a33.41 33.41 0 00-9.14-6 31 31 0 00-12.34-2.47 32 32 0 00-24.2 10.8 39.23 39.23 0 00-10 27.42 38.23 38.23 0 0010.3 27.11 32.44 32.44 0 0024.41 10.92 29.71 29.71 0 0011.7-2.24 34.46 34.46 0 009.14-5.94v5.48a.87.87 0 00.87.87h17.82a.83.83 0 00.87-.77V31.07a.86.86 0 00-.87-.86M997.32 66.4a20.6 20.6 0 01-5.25 14.67 17.54 17.54 0 01-13.26 5.58A17 17 0 01965.74 81a20.65 20.65 0 01-5.3-14.49 20.21 20.21 0 015.26-14.35 17.11 17.11 0 0113.16-5.44 18 18 0 0113.35 5.49 20 20 0 015.25 14.35M374.85 173.76l-3.42-1.76a10.59 10.59 0 01-2.61-1.55 1.56 1.56 0 01-.37-.92 1.4 1.4 0 01.6-1.09 3.56 3.56 0 012.06-.51 9.15 9.15 0 015.89 3.29l.55.51 6.76-6.77-.36-.5A15.7 15.7 0 00371 158a13.21 13.21 0 00-9.14 3.34 10.72 10.72 0 00-3.65 8.13c0 4.85 3.2 9.14 9.5 12.11l3.16 1.6c2.42 1.19 3.7 2.47 3.7 3.57a2 2 0 01-1.05 1.64 5.63 5.63 0 01-6.17-.36 13.14 13.14 0 01-3.66-2.93l-.55-.64-6.76 7.36.37.5a16.51 16.51 0 0013.72 6.68 15 15 0 0010.32-3.52 12.21 12.21 0 001.88-16 20.62 20.62 0 00-7.77-5.71M423.89 145.1H413V159h-4.8v9.55h4.8v29.39h10.87V168.5h5.62V159h-5.62zM482.89 161a20.54 20.54 0 00-10.32-2.74 19.55 19.55 0 00-13.72 5.25 20.67 20.67 0 00-.81 29.21l.27.27a19.49 19.49 0 0014.3 5.94 20.61 20.61 0 0010.6-2.74 19.16 19.16 0 007.45-7.49 20.24 20.24 0 002.75-10.29 20.6 20.6 0 00-2.7-10.19 19.84 19.84 0 00-7.82-7.22m-10.19 27.89a8.67 8.67 0 01-6.76-2.84 10.34 10.34 0 01-2.7-7.4 10 10 0 012.7-7.31 9.78 9.78 0 0113.71 0 10.32 10.32 0 012.7 7.35 10.12 10.12 0 01-2.75 7.36 9.12 9.12 0 01-6.81 2.88M530.24 159.54a10.58 10.58 0 00-2.33 2.2V159h-9.55v38.94h10.83v-17.78a23.4 23.4 0 011.42-10.16c.87-1.6 1.83-2.33 3-2.33a5.56 5.56 0 012.38.73l.73.37 3.48-9.51-.64-.27a9.14 9.14 0 00-9.14.54M582.71 158a19.42 19.42 0 00-14.4 5.85 20.29 20.29 0 00-5.76 14.76 19.92 19.92 0 005.76 14.39 20.2 20.2 0 0014.9 5.76 23.2 23.2 0 0010.15-2.06 19.75 19.75 0 007.36-6.49l.5-.73-9.14-4.29-.41.36a11.87 11.87 0 01-8.55 3.48 10.2 10.2 0 01-6.76-2.2 9.13 9.13 0 01-3.07-5.07h30v-2.47a21.26 21.26 0 00-5.85-15.4 20 20 0 00-14.9-5.85m-8.73 15a10.12 10.12 0 012.7-3.52 10.59 10.59 0 016.49-2.12 9.94 9.94 0 015.94 1.83A9.09 9.09 0 01592 173zM653.59 179.47a20.54 20.54 0 00-7.77-5.71L642.4 172a9.42 9.42 0 01-2.56-1.55 1.25 1.25 0 01-.41-.92 1.36 1.36 0 01.59-1.09 3.56 3.56 0 012.06-.51 9.18 9.18 0 015.94 3.29l.5.51 6.81-6.77-.41-.5A15.7 15.7 0 00642 158a13 13 0 00-9.14 3.34 10.63 10.63 0 00-3.71 8.13c0 4.85 3.2 9.14 9.55 12.11l3.16 1.6c2.42 1.19 3.7 2.47 3.7 3.57a2 2 0 01-.87 1.51 5.63 5.63 0 01-6.17-.37 13.09 13.09 0 01-3.65-2.93l-.55-.64-6.77 7.36.41.51a16.44 16.44 0 0013.72 6.67 14.84 14.84 0 0010.32-3.53 12.06 12.06 0 001.74-15.86" transform="translate(-7.89 -1)"/></svg>